<svg width="41" height="56" viewBox="0 0 41 56" fill="none" xmlns="http://www.w3.org/2000/svg">
<path d="M7.6875 10.1818H33.3125V15.2727H38.4375V5.09091C38.4375 2.29091 36.1312 0.0254545 33.3125 0.0254545L7.6875 0C4.86875 0 2.5625 2.29091 2.5625 5.09091V15.2727H7.6875V10.1818ZM29.2381 39.6836L41 28L29.2381 16.3164L25.625 19.9309L33.7481 28L25.625 36.0691L29.2381 39.6836ZM15.375 36.0691L7.25187 28L15.375 19.9309L11.7619 16.3164L0 28L11.7619 39.6836L15.375 36.0691ZM33.3125 45.8182H7.6875V40.7273H2.5625V50.9091C2.5625 53.7091 4.86875 56 7.6875 56H33.3125C36.1312 56 38.4375 53.7091 38.4375 50.9091V40.7273H33.3125V45.8182Z" fill="white"/>
</svg>
