<svg width="37" height="36" viewBox="0 0 37 36" fill="none" xmlns="http://www.w3.org/2000/svg">
<path d="M14.402 16.0736C14.7537 15.8244 14.9234 15.4129 14.9234 14.8472C14.9355 14.5782 14.879 14.3132 14.7577 14.0718C14.6486 13.878 14.4869 13.7158 14.2888 13.6011C14.0834 13.4792 13.8554 13.3985 13.6178 13.3637C13.3591 13.3162 13.0964 13.2925 12.8377 13.2964H9.99611V16.4494H13.0721C13.6017 16.4534 14.0503 16.3268 14.402 16.0736ZM14.879 18.922C14.4828 18.6253 13.9533 18.4789 13.2945 18.4789H9.98802V22.1976H13.2298C13.5329 22.1976 13.8118 22.17 14.0827 22.1146C14.3389 22.0655 14.5831 21.9688 14.8022 21.8297C15.0083 21.6992 15.174 21.5212 15.2993 21.2917C15.4206 21.0622 15.4812 20.7695 15.4812 20.4174C15.4812 19.7172 15.2791 19.2227 14.879 18.922ZM18.1086 0C8.10845 0 0 7.93593 0 17.7233C0 27.5107 8.10845 35.4466 18.1086 35.4466C28.1087 35.4466 36.2172 27.5107 36.2172 17.7233C36.2172 7.93593 28.1087 0 18.1086 0ZM21.605 11.35H27.1993V12.6832H21.605V11.35ZM18.1086 22.344C17.8469 22.8301 17.4733 23.25 17.0172 23.5704C16.5403 23.8948 16.0107 24.1322 15.4489 24.2706C14.8611 24.4248 14.2547 24.5007 13.6461 24.4961H6.95241V11.0019H13.4602C14.119 11.0019 14.7173 11.0612 15.263 11.172C15.8046 11.2828 16.2654 11.4727 16.6534 11.7298C17.0374 11.987 17.3406 12.3311 17.5548 12.7584C17.765 13.1817 17.8742 13.7118 17.8742 14.3408C17.8742 15.0213 17.7165 15.5831 17.4012 16.038C17.0819 16.493 16.6211 16.8609 15.9946 17.1497C16.8475 17.387 17.474 17.8103 17.8863 18.4038C18.3067 19.0051 18.5128 19.7251 18.5128 20.5717C18.5128 21.2601 18.3794 21.8495 18.1086 22.344ZM29.378 20.2552H22.1669C22.1669 21.0227 22.4377 21.7585 22.8459 22.1541C23.2582 22.5458 23.8484 22.7436 24.6204 22.7436C25.1782 22.7436 25.6511 22.6051 26.0554 22.3322C26.4555 22.0592 26.6981 21.7704 26.787 21.4697H29.2042C28.8161 22.6447 28.226 23.4834 27.4256 23.9898C26.6334 24.4961 25.6633 24.7493 24.5355 24.7493C23.7473 24.7493 23.04 24.6227 22.4053 24.3814C21.795 24.148 21.2453 23.792 20.7925 23.333C20.3462 22.8618 20.0012 22.3075 19.778 21.7031C19.5314 21.0346 19.4102 20.3304 19.4182 19.6222C19.4182 18.8904 19.5435 18.2099 19.7861 17.5769C20.2509 16.3466 21.217 15.3615 22.4498 14.8512C23.1087 14.5822 23.816 14.4477 24.5315 14.4556C25.3803 14.4556 26.116 14.6138 26.7546 14.9382C27.3695 15.248 27.9033 15.692 28.3149 16.2358C28.7231 16.7778 29.0101 17.3949 29.192 18.0912C29.3658 18.7756 29.4265 19.4956 29.378 20.2552ZM24.4466 16.4732C24.0101 16.4732 23.6422 16.5483 23.3593 16.6947C23.0763 16.8411 22.8419 17.0231 22.664 17.2327C22.4947 17.4352 22.3695 17.6695 22.2962 17.9211C22.2315 18.1308 22.1871 18.3444 22.1709 18.562H26.6374C26.5727 17.8776 26.3302 17.3712 26.0069 17.0152C25.6673 16.6631 25.1216 16.4732 24.4466 16.4732Z" fill="#D8D8D8"/>
</svg>
