<svg width="221" height="54" viewBox="0 0 221 54" fill="none" xmlns="http://www.w3.org/2000/svg">
<path d="M217 27C217 28.3955 215.731 30.9178 210.315 34.046C205.195 37.0042 197.519 39.8035 187.686 42.2062C168.082 46.9963 140.791 50 110.5 50C80.2094 50 52.9182 46.9963 33.3141 42.2062C23.4809 39.8035 15.8052 37.0042 10.6845 34.046C5.26945 30.9178 4 28.3955 4 27C4 25.6045 5.26945 23.0822 10.6845 19.954C15.8052 16.9958 23.4809 14.1965 33.3141 11.7938C52.9182 7.00367 80.2094 4 110.5 4C140.791 4 168.082 7.00367 187.686 11.7938C197.519 14.1965 205.195 16.9958 210.315 19.954C215.731 23.0822 217 25.6045 217 27Z" stroke="#FF502F" stroke-width="8"/>
</svg>
