<svg width="114" height="114" viewBox="0 0 114 114" fill="none" xmlns="http://www.w3.org/2000/svg">
<path d="M95 16.625H19C13.775 16.625 9.5 20.9 9.5 26.125V87.875C9.5 93.1 13.775 97.375 19 97.375H30.875V94.2875C29.45 93.575 28.5 91.9125 28.5 90.25C28.5 87.6375 30.6375 85.5 33.25 85.5C35.8625 85.5 38 87.6375 38 90.25C38 91.9125 37.05 93.575 35.625 94.2875V97.375H78.375V94.2875C76.95 93.575 76 91.9125 76 90.25C76 87.6375 78.1375 85.5 80.75 85.5C83.3625 85.5 85.5 87.6375 85.5 90.25C85.5 91.9125 84.55 93.575 83.125 94.2875V97.375H95C100.225 97.375 104.5 93.1 104.5 87.875V26.125C104.5 20.9 100.225 16.625 95 16.625Z" fill="#7E3AF6"/>
<path d="M57 52.25C62.2467 52.25 66.5 47.9967 66.5 42.75C66.5 37.5033 62.2467 33.25 57 33.25C51.7533 33.25 47.5 37.5033 47.5 42.75C47.5 47.9967 51.7533 52.25 57 52.25Z" fill="#D1C4E9"/>
<path d="M73.625 66.5C73.625 66.5 69.1125 57 57 57C44.8875 57 40.375 66.5 40.375 66.5V71.25H73.625V66.5Z" fill="#D1C4E9"/>
</svg>
