<svg width="39" height="38" viewBox="0 0 39 38" fill="none" xmlns="http://www.w3.org/2000/svg">
<path d="M37.0339 18.6237C37.0369 20.945 36.5714 23.2438 35.6643 25.3875C34.7571 27.5311 33.4264 29.477 31.7488 31.1126C30.085 32.7434 28.1102 34.0363 25.9373 34.9173C23.7643 35.7983 21.4359 36.2503 19.085 36.2473C9.17182 36.2473 1.1361 28.3572 1.1361 18.6237C1.12983 14.1047 2.89767 9.75734 6.07204 6.48537C7.74698 4.74997 9.76495 3.36841 12.0025 2.42522C14.24 1.48204 16.65 0.997078 19.085 1.00001C21.4359 0.997025 23.7643 1.44896 25.9373 2.32999C28.1102 3.21102 30.085 4.50388 31.7488 6.13466C33.4264 7.77033 34.7571 9.7162 35.6643 11.8598C36.5714 14.0035 37.0369 16.3023 37.0339 18.6237V18.6237Z" stroke="white" stroke-width="2" stroke-linecap="round" stroke-linejoin="round"/>
<path d="M37.0338 18.6243C34.4151 18.6243 27.1907 17.655 20.7246 20.4422C13.7003 23.4708 8.61447 28.1683 6.39779 31.0903" stroke="white" stroke-width="2" stroke-linecap="round" stroke-linejoin="round"/>
<path d="M12.3542 2.28174C15.1631 4.82745 21.2927 11.3094 23.5722 17.7428C25.8517 24.1771 26.6953 32.0883 27.2158 34.3397" stroke="white" stroke-width="2" stroke-linecap="round" stroke-linejoin="round"/>
<path d="M1.27431 16.4224C4.66486 16.6233 13.6402 16.804 19.3838 14.3958C25.1275 11.9876 30.0697 7.55803 31.765 6.15259" stroke="white" stroke-width="2" stroke-linecap="round" stroke-linejoin="round"/>
<path d="M2.48229 25.3286C4.06386 29.0875 6.91628 32.1966 10.5593 34.1322" stroke="white" stroke-width="2" stroke-linecap="round" stroke-linejoin="round"/>
<path d="M1.1361 18.6217C1.12983 14.1029 2.89767 9.75554 6.07204 6.48364" stroke="white" stroke-width="2" stroke-linecap="round" stroke-linejoin="round"/>
<path d="M19.0849 1.00001C16.65 0.997076 14.24 1.48204 12.0024 2.42523C9.76493 3.36841 7.74697 4.74998 6.07203 6.48539" stroke="white" stroke-width="2" stroke-linecap="round" stroke-linejoin="round"/>
<path d="M26.2645 2.46631C28.3085 3.34444 30.1683 4.5884 31.7488 6.13465C33.4263 7.77032 34.7571 9.71618 35.6642 11.8598C36.5713 14.0034 37.0368 16.3023 37.0338 18.6236C37.0338 20.7939 36.6345 22.8718 35.903 24.7919" stroke="white" stroke-width="2" stroke-linecap="round" stroke-linejoin="round"/>
<path d="M19.085 36.246C21.4359 36.249 23.7643 35.797 25.9373 34.9159C28.1102 34.0349 30.085 32.7419 31.7488 31.1111" stroke="white" stroke-width="2" stroke-linecap="round" stroke-linejoin="round"/>
</svg>
