<svg width="45" height="45" viewBox="0 0 45 45" fill="none" xmlns="http://www.w3.org/2000/svg">
<path d="M42.1875 0H2.8125C1.40625 0 0 1.40625 0 2.8125V34.4535C0 35.8597 1.40625 37.266 2.8125 37.266H16.875V40.0785C16.875 42.0315 14.3415 42.891 11.25 42.891V45H33.75V42.8903C30.6577 42.8903 28.125 42.0308 28.125 40.0778V37.2653H42.1875C43.5938 37.2653 45 35.859 45 34.4528V2.8125C45 1.40625 43.5938 0 42.1875 0ZM43.5 34.4535C43.5 35.0303 42.7635 35.766 42.1875 35.766H2.8125C2.23575 35.766 1.5 35.0303 1.5 34.4535V31.641H43.5V34.4535Z" fill="white"/>
</svg>
