<svg width="37" height="36" viewBox="0 0 37 36" fill="none" xmlns="http://www.w3.org/2000/svg">
<path fill-rule="evenodd" clip-rule="evenodd" d="M11.5696 0.105742C13.4898 0.0192258 14.102 0 18.9933 0C23.8846 0 24.4968 0.0208279 26.4153 0.105742C28.3339 0.190656 29.6434 0.490258 30.7893 0.924441C31.9892 1.36824 33.0778 2.06197 33.9781 2.95917C34.8948 3.83875 35.602 4.90258 36.0538 6.07856C36.4991 7.20006 36.8036 8.48178 36.892 10.3563C36.9804 12.2388 37 12.838 37 17.6237C37 22.4109 36.9787 23.0101 36.892 24.8894C36.8052 26.7639 36.4991 28.0456 36.0538 29.1671C35.602 30.3433 34.8937 31.4089 33.9781 32.2897C33.0778 33.1869 31.9892 33.8791 30.7893 34.3213C29.6434 34.757 28.3339 35.055 26.4186 35.1416C24.4968 35.2281 23.8846 35.2473 18.9933 35.2473C14.102 35.2473 13.4898 35.2265 11.5696 35.1416C9.65434 35.0566 8.34476 34.757 7.19888 34.3213C5.99721 33.879 4.90845 33.1857 4.00841 32.2897C3.09233 31.4096 2.38341 30.3445 1.93109 29.1687C1.48747 28.0472 1.18299 26.7655 1.0946 24.891C1.0062 23.0085 0.986557 22.4093 0.986557 17.6237C0.986557 12.8364 1.00784 12.2372 1.0946 10.3595C1.18136 8.48178 1.48747 7.20006 1.93109 6.07856C2.38408 4.90271 3.09354 3.83765 4.01005 2.95757C4.90881 2.06117 5.99647 1.36734 7.19724 0.924441C8.34312 0.490258 9.6527 0.192258 11.568 0.105742H11.5696ZM26.2696 3.278C24.3707 3.19309 23.8011 3.17546 18.9933 3.17546C14.1855 3.17546 13.6158 3.19309 11.7169 3.278C9.96045 3.3565 9.00773 3.64329 8.37259 3.88521C7.53282 4.20564 6.93205 4.58535 6.30181 5.20218C5.70439 5.77103 5.24462 6.46353 4.95622 7.2289C4.70904 7.85054 4.41602 8.78299 4.33581 10.5021C4.24905 12.3606 4.23104 12.9181 4.23104 17.6237C4.23104 22.3292 4.24905 22.8867 4.33581 24.7452C4.41602 26.4643 4.70904 27.3968 4.95622 28.0184C5.24433 28.7826 5.70432 29.4764 6.30181 30.0451C6.88294 30.6299 7.59175 31.0801 8.37259 31.3621C9.00773 31.604 9.96045 31.8908 11.7169 31.9693C13.6158 32.0542 14.1838 32.0718 18.9933 32.0718C23.8027 32.0718 24.3707 32.0542 26.2696 31.9693C28.0261 31.8908 28.9788 31.604 29.614 31.3621C30.4537 31.0417 31.0545 30.6619 31.6847 30.0451C32.2822 29.4764 32.7422 28.7826 33.0303 28.0184C33.2775 27.3968 33.5705 26.4643 33.6507 24.7452C33.7375 22.8867 33.7555 22.3292 33.7555 17.6237C33.7555 12.9181 33.7375 12.3606 33.6507 10.5021C33.5705 8.78299 33.2775 7.85054 33.0303 7.2289C32.7029 6.407 32.315 5.81901 31.6847 5.20218C31.1035 4.61751 30.396 4.16753 29.614 3.88521C28.9788 3.64329 28.0261 3.3565 26.2696 3.278ZM16.6933 23.0565C17.9778 23.5799 19.4081 23.6505 20.7398 23.2564C22.0716 22.8622 23.2222 22.0278 23.9952 20.8956C24.7682 19.7634 25.1157 18.4037 24.9781 17.0486C24.8406 15.6936 24.2267 14.4273 23.2412 13.4661C22.613 12.8516 21.8534 12.3811 21.0171 12.0885C20.1808 11.7958 19.2886 11.6883 18.4048 11.7736C17.5209 11.8589 16.6674 12.135 15.9056 12.5819C15.1439 13.0288 14.4928 13.6355 13.9994 14.3582C13.5059 15.081 13.1823 15.9018 13.0519 16.7616C12.9215 17.6215 12.9875 18.4989 13.2451 19.3308C13.5027 20.1626 13.9456 20.9283 14.5419 21.5725C15.1381 22.2167 15.8729 22.7236 16.6933 23.0565ZM12.4487 11.2183C13.3081 10.3771 14.3284 9.70984 15.4514 9.2546C16.5743 8.79936 17.7778 8.56505 18.9933 8.56505C20.2087 8.56505 21.4123 8.79936 22.5352 9.2546C23.6581 9.70983 24.6785 10.3771 25.5379 11.2183C26.3974 12.0594 27.0791 13.058 27.5442 14.1571C28.0094 15.2561 28.2488 16.4341 28.2488 17.6237C28.2488 18.8132 28.0094 19.9912 27.5442 21.0902C27.0791 22.1893 26.3974 23.1879 25.5379 24.029C23.8022 25.7279 21.448 26.6822 18.9933 26.6822C16.5386 26.6822 14.1844 25.7279 12.4487 24.029C10.7129 22.3302 9.73778 20.0261 9.73778 17.6237C9.73778 15.2212 10.7129 12.9171 12.4487 11.2183ZM30.3015 9.91411C30.5145 9.71747 30.685 9.48101 30.8029 9.21873C30.9208 8.95645 30.9838 8.67367 30.9881 8.38714C30.9923 8.10062 30.9378 7.81617 30.8278 7.55063C30.7177 7.28509 30.5543 7.04387 30.3473 6.84124C30.1402 6.63862 29.8938 6.47871 29.6225 6.37098C29.3512 6.26325 29.0605 6.2099 28.7678 6.21407C28.475 6.21825 28.1861 6.27987 27.9181 6.3953C27.6501 6.51072 27.4085 6.67759 27.2076 6.88604C26.8169 7.29143 26.603 7.8299 26.6113 8.38714C26.6196 8.94439 26.8494 9.47652 27.2521 9.87059C27.6547 10.2647 28.1984 10.4896 28.7678 10.4978C29.3371 10.5059 29.8873 10.2965 30.3015 9.91411Z" fill="#D8D8D8"/>
</svg>
