<svg width="65" height="65" viewBox="0 0 65 65" fill="none" xmlns="http://www.w3.org/2000/svg">
<path d="M32.5 2C15.6549 2 2 15.6549 2 32.5C2 49.3451 15.6549 63 32.5 63C49.3451 63 63 49.3451 63 32.5C63 15.6549 49.3451 2 32.5 2Z" stroke="white" stroke-width="4" stroke-linecap="round" stroke-linejoin="round"/>
<path d="M20.3 60.4625V38.6L32.5 17.25L44.7 38.6V60.4625" stroke="white" stroke-width="4" stroke-linecap="round" stroke-linejoin="round"/>
<path d="M20.3 38.6001C20.3 38.6001 23.7373 41.6502 26.4 41.6502C29.0626 41.6502 32.5 38.6001 32.5 38.6001C32.5 38.6001 35.9374 41.6502 38.6 41.6502C41.2627 41.6502 44.7 38.6001 44.7 38.6001" stroke="white" stroke-width="4" stroke-linecap="round" stroke-linejoin="round"/>
</svg>
